<svg width="33" height="44" viewBox="0 0 33 44" fill="none" xmlns="http://www.w3.org/2000/svg">
<path d="M14.1325 15.0394L10.4492 16.3798V23.5128H6.42389V13.55H6.45408L17.0569 9.68968C17.548 9.5025 18.0833 9.40791 18.6308 9.42602C19.7244 9.45448 20.7821 9.82235 21.6573 10.4787C22.5325 11.135 23.1819 12.0473 23.5156 13.0891C23.8899 14.2632 24.2321 15.0555 24.542 15.4661C25.4794 16.7146 26.6945 17.7279 28.0911 18.4259C29.4876 19.1238 31.0275 19.4873 32.5887 19.4874V23.5128C30.5103 23.5145 28.4574 23.0556 26.5774 22.1693C24.6975 21.2829 23.0373 19.991 21.7162 18.3865L20.3134 26.3486L24.538 29.893V43.6396H20.5127V31.7688L15.9439 27.9366L14.4806 36.243L0.605225 33.7976L1.30564 29.8326L11.2161 31.5796L14.1325 15.0394ZM21.519 8.41767C20.4514 8.41767 19.4275 7.99357 18.6726 7.23867C17.9177 6.48376 17.4936 5.4599 17.4936 4.39231C17.4936 3.32471 17.9177 2.30085 18.6726 1.54594C19.4275 0.791043 20.4514 0.366943 21.519 0.366943C22.5866 0.366943 23.6105 0.791043 24.3654 1.54594C25.1203 2.30085 25.5444 3.32471 25.5444 4.39231C25.5444 5.4599 25.1203 6.48376 24.3654 7.23867C23.6105 7.99357 22.5866 8.41767 21.519 8.41767Z" fill="#00000A" fill-opacity="0.6"/>
</svg>
