<svg width="36" height="24" viewBox="0 0 36 24" fill="none" xmlns="http://www.w3.org/2000/svg">
<path d="M11.52 8.91429C10.9237 8.15893 9.79313 8.00357 9 8.57143C8.20687 9.13929 8.04375 10.2161 8.64 10.9714L10.7831 13.6929C11.0531 14.0357 11.0137 14.5125 10.6987 14.8125L9.97875 15.4982C9.60187 15.8571 8.98875 15.8304 8.65125 15.4393L3.6 9.66429V1.71429C3.6 0.766071 2.79562 0 1.8 0C0.804375 0 0 0.766071 0 1.71429V13.4143C0 13.9982 0.208125 14.5661 0.590625 15.0214L6.44625 22.2161C6.7275 22.5643 6.91875 22.9607 7.03125 23.3786C7.1325 23.7482 7.48688 24 7.89187 24H15.3C15.795 24 16.2 23.6143 16.2 23.1429V17.1429C16.2 15.6589 15.6937 14.2179 14.76 13.0286L11.52 8.91429ZM34.2 0C33.2044 0 32.4 0.766071 32.4 1.71429V9.66429L27.3487 15.4393C27.0112 15.825 26.3925 15.8518 26.0212 15.4982L25.3012 14.8125C24.9862 14.5125 24.9469 14.0357 25.2169 13.6929L27.36 10.9714C27.9562 10.2161 27.7931 9.13929 27 8.57143C26.2069 8.00357 25.0763 8.15893 24.48 8.91429L21.24 13.0286C20.3062 14.2179 19.8 15.6589 19.8 17.1429V23.1429C19.8 23.6143 20.205 24 20.7 24H28.1081C28.5075 24 28.8675 23.7482 28.9688 23.3786C29.0812 22.9607 29.2725 22.5643 29.5538 22.2161L35.4094 15.0214C35.7919 14.5661 36 13.9982 36 13.4143V1.71429C36 0.766071 35.1956 0 34.2 0Z" fill="#00000A" fill-opacity="0.6"/>
<path d="M18 13L16.985 12.0649C13.38 8.7564 11 6.5673 11 3.89646C11 1.70736 12.694 0 14.85 0C16.068 0 17.237 0.573842 18 1.47357C18.763 0.573842 19.932 0 21.15 0C23.306 0 25 1.70736 25 3.89646C25 6.5673 22.62 8.7564 19.015 12.0649L18 13Z" fill="#00000A" fill-opacity="0.6"/>
</svg>
