<svg width="27" height="28" viewBox="0 0 27 28" fill="none" xmlns="http://www.w3.org/2000/svg">
<path d="M13.3778 18.5625C12.1015 18.5625 10.8774 18.0555 9.97488 17.153C9.07236 16.2504 8.56533 15.0264 8.56533 13.75C8.56533 12.4736 9.07236 11.2496 9.97488 10.3471C10.8774 9.44453 12.1015 8.9375 13.3778 8.9375C14.6542 8.9375 15.8783 9.44453 16.7808 10.3471C17.6833 11.2496 18.1903 12.4736 18.1903 13.75C18.1903 15.0264 17.6833 16.2504 16.7808 17.153C15.8783 18.0555 14.6542 18.5625 13.3778 18.5625ZM23.5941 15.0838C23.6491 14.6438 23.6903 14.2038 23.6903 13.75C23.6903 13.2963 23.6491 12.8425 23.5941 12.375L26.4953 10.1338C26.7566 9.9275 26.8253 9.55625 26.6603 9.25375L23.9103 4.49625C23.7453 4.19375 23.3741 4.07 23.0716 4.19375L19.6478 5.56875C18.9328 5.0325 18.1903 4.565 17.3241 4.22125L16.8153 0.577503C16.7874 0.415551 16.703 0.268715 16.5772 0.163011C16.4514 0.057307 16.2922 -0.00043969 16.1278 2.52102e-06H10.6278C10.2841 2.52102e-06 9.99533 0.247503 9.94033 0.577503L9.43158 4.22125C8.56533 4.565 7.82283 5.0325 7.10783 5.56875L3.68408 4.19375C3.38158 4.07 3.01033 4.19375 2.84533 4.49625L0.0953309 9.25375C-0.0834191 9.55625 -0.000918915 9.9275 0.260331 10.1338L3.16158 12.375C3.10658 12.8425 3.06533 13.2963 3.06533 13.75C3.06533 14.2038 3.10658 14.6438 3.16158 15.0838L0.260331 17.3663C-0.000918915 17.5725 -0.0834191 17.9438 0.0953309 18.2463L2.84533 23.0038C3.01033 23.3063 3.38158 23.4163 3.68408 23.3063L7.10783 21.9175C7.82283 22.4675 8.56533 22.935 9.43158 23.2788L9.94033 26.9225C9.99533 27.2525 10.2841 27.5 10.6278 27.5H16.1278C16.4716 27.5 16.7603 27.2525 16.8153 26.9225L17.3241 23.2788C18.1903 22.9213 18.9328 22.4675 19.6478 21.9175L23.0716 23.3063C23.3741 23.4163 23.7453 23.3063 23.9103 23.0038L26.6603 18.2463C26.8253 17.9438 26.7566 17.5725 26.4953 17.3663L23.5941 15.0838Z" fill="#00000A" fill-opacity="0.6"/>
</svg>
