<svg width="38" height="38" viewBox="0 0 38 38" fill="none" xmlns="http://www.w3.org/2000/svg">
<path d="M23.75 31.6667H14.25V34.8334H23.75V31.6667Z" fill="#00000A" fill-opacity="0.6"/>
<path d="M19 26.9167H14.25V22.4833C11.4158 20.8367 9.5 17.765 9.5 14.25C9.5 9.00917 13.7592 4.75 19 4.75C24.2408 4.75 28.5 9.00917 28.5 14.25C28.5 17.765 26.5842 20.8367 23.75 22.4833V26.9167H19Z" fill="#00000A" fill-opacity="0.6"/>
<path d="M19 4.25C24.517 4.25 29 8.73302 29 14.25C29 17.8469 27.0936 21 24.25 22.7646V26.917C24.2498 27.193 24.026 27.417 23.75 27.417H14.25C13.974 27.417 13.7502 27.193 13.75 26.917V22.7646C10.9064 21 9 17.8469 9 14.25C9 8.73302 13.483 4.25 19 4.25Z" stroke="#00000A" stroke-opacity="0.6" stroke-linecap="round" stroke-linejoin="round"/>
</svg>
