<svg width="36" height="36" viewBox="0 0 36 36" fill="none" xmlns="http://www.w3.org/2000/svg">
<path d="M18 35.5C15.5792 35.5 13.3042 35.0403 11.175 34.121C9.04584 33.2017 7.19375 31.9551 5.61875 30.3812C4.04375 28.8074 2.79717 26.9553 1.879 24.825C0.960836 22.6947 0.501169 20.4197 0.500002 18C0.498836 15.5803 0.958502 13.3053 1.879 11.175C2.7995 9.04467 4.04609 7.19258 5.61875 5.61875C7.19142 4.04492 9.0435 2.79833 11.175 1.879C13.3065 0.959667 15.5815 0.5 18 0.5C20.4185 0.5 22.6935 0.959667 24.825 1.879C26.9565 2.79833 28.8086 4.04492 30.3813 5.61875C31.9539 7.19258 33.2011 9.04467 34.1228 11.175C35.0444 13.3053 35.5035 15.5803 35.5 18C35.4965 20.4197 35.0368 22.6947 34.121 24.825C33.2052 26.9553 31.9586 28.8074 30.3813 30.3812C28.8039 31.9551 26.9518 33.2022 24.825 34.1227C22.6982 35.0432 20.4232 35.5023 18 35.5ZM18 32C21.9083 32 25.2188 30.6437 27.9312 27.9312C30.6438 25.2187 32 21.9083 32 18C32 14.0917 30.6438 10.7812 27.9312 8.06875C25.2188 5.35625 21.9083 4 18 4C14.0917 4 10.7813 5.35625 8.06875 8.06875C5.35625 10.7812 4 14.0917 4 18C4 21.9083 5.35625 25.2187 8.06875 27.9312C10.7813 30.6437 14.0917 32 18 32ZM18 28.5C15.0833 28.5 12.6042 27.4792 10.5625 25.4375C8.52084 23.3958 7.5 20.9167 7.5 18C7.5 15.0833 8.52084 12.6042 10.5625 10.5625C12.6042 8.52083 15.0833 7.5 18 7.5C20.9167 7.5 23.3958 8.52083 25.4375 10.5625C27.4792 12.6042 28.5 15.0833 28.5 18C28.5 20.9167 27.4792 23.3958 25.4375 25.4375C23.3958 27.4792 20.9167 28.5 18 28.5ZM18 25C19.925 25 21.5729 24.3146 22.9438 22.9437C24.3146 21.5729 25 19.925 25 18C25 16.075 24.3146 14.4271 22.9438 13.0562C21.5729 11.6854 19.925 11 18 11C16.075 11 14.4271 11.6854 13.0563 13.0562C11.6854 14.4271 11 16.075 11 18C11 19.925 11.6854 21.5729 13.0563 22.9437C14.4271 24.3146 16.075 25 18 25ZM18 21.5C17.0375 21.5 16.2138 21.1576 15.529 20.4727C14.8442 19.7879 14.5012 18.9637 14.5 18C14.4988 17.0363 14.8418 16.2127 15.529 15.529C16.2162 14.8453 17.0398 14.5023 18 14.5C18.9602 14.4977 19.7844 14.8407 20.4728 15.529C21.1611 16.2173 21.5035 17.041 21.5 18C21.4965 18.959 21.1541 19.7832 20.4728 20.4727C19.7914 21.1622 18.9672 21.5047 18 21.5Z" fill="#00000A" fill-opacity="0.6"/>
</svg>
