<svg width="416" height="229" viewBox="0 0 416 229" fill="none" xmlns="http://www.w3.org/2000/svg">
<path d="M90.3728 116.427C92.6547 109.049 94.9601 101.671 97.242 94.2924C100.989 82.2557 104.665 70.2184 108.481 58.2059C112.25 46.3825 116.182 34.6315 119.974 22.8083C122.087 16.1873 124.011 9.51754 126.006 2.87199C126.391 1.64231 126.819 0.863209 128.51 0.874861C142.881 1.09239 157.229 1.21497 171.601 1.26661C173.433 1.27923 174.18 1.92424 174.685 3.61032C179.805 20.519 185.067 37.4049 190.14 54.337C194.64 69.3692 198.904 84.4708 203.309 99.5261C204.869 104.869 206.57 110.189 208.248 115.509C208.455 116.151 208.968 116.699 209.363 117.318C211.232 111.975 213.028 106.869 214.801 101.738C217.869 92.7775 220.843 83.7926 224.005 74.88C228.388 62.4922 233.005 50.177 237.365 37.7653C241.46 26.1813 245.369 14.5248 249.441 2.91686C249.633 2.37312 250.646 1.81134 251.28 1.81571C266.475 1.87302 281.668 2.02512 296.861 2.17722C297.636 2.18256 298.385 2.5432 299.042 2.68991C293.557 18.2458 288.12 33.6598 282.659 49.0499C276.863 65.3857 271.02 81.7211 265.224 98.0806C259.763 113.542 254.42 129.028 248.865 144.441C242.951 160.894 236.803 177.251 230.818 193.68C229.645 196.895 228.754 200.231 227.557 203.446C227.294 204.131 226.302 205.001 225.644 204.996C215.264 205.02 204.884 204.972 194.505 204.782C193.754 204.777 192.563 203.797 192.333 203.037C187.764 187.957 183.406 172.831 178.836 157.774C175.621 147.206 172.1 136.707 168.838 126.163C164.956 113.599 161.215 100.99 157.403 88.4032C155.268 81.35 153.132 74.3205 151.02 67.2675C150.836 66.6501 150.794 65.9862 150.614 64.8948C150.046 65.4123 149.481 65.6928 149.337 66.1183C146.603 74.394 143.892 82.6935 141.204 90.9695C138.854 98.134 136.479 105.298 134.175 112.487C128.367 130.576 122.606 148.69 116.822 166.803C113.077 178.579 109.285 190.331 105.658 202.131C105.153 203.811 104.492 204.327 102.801 204.292C92.9152 204.153 83.0522 204.085 73.1652 204.088C71.6622 204.077 70.7017 203.739 70.172 202.219C66.5367 191.292 62.9016 180.342 59.1958 169.439C54.8451 156.683 50.3534 143.95 46.0027 131.193C43.2402 123.117 40.6424 114.994 37.9504 106.918C35.3731 99.2219 32.7724 91.5257 30.1482 83.8293C27.9157 77.2257 25.6361 70.6455 23.3799 64.0654C20.1796 54.7772 16.8853 45.4884 13.7321 36.1768C10.1639 25.7485 6.73635 15.345 3.26188 4.94104C2.73237 3.39699 2.10877 1.87598 1.55546 0.379159L50.9177 0.719329C63.9188 39.5561 76.8047 78.084 89.7138 116.636C89.9257 116.566 90.161 116.497 90.373 116.403L90.3728 116.427Z" fill="black"/>
<path d="M292.946 156.008C293.819 165.826 298.966 172.616 306.473 177.953C315.876 184.63 326.385 187.523 337.745 186.274C344.143 185.56 349.829 182.376 354.932 178.548C361.665 173.499 366.598 166.991 369.029 158.736C370.28 154.455 370.592 150.167 370.13 145.661C369.69 141.25 369.25 136.886 367.138 132.984C363.263 125.776 356.896 121.988 349.054 120.843C323.931 117.21 298.626 119.595 273.39 118.758C271.933 118.7 270.454 118.572 269.138 118.491C271.487 111.919 273.667 105.843 275.825 99.719C281.194 84.5638 286.586 69.4088 291.908 54.2296C297.015 39.6888 302.051 25.1238 307.11 10.559C307.853 8.43103 308.386 6.20683 309.223 4.10323C309.438 3.53589 310.288 3.04403 310.924 2.81141C311.607 2.57911 312.405 2.67941 313.134 2.68443C340.067 2.87003 366.976 3.05547 393.909 3.24107C394.144 3.24269 394.378 3.26801 394.848 3.31865C395.018 5.92691 395.329 8.51244 395.311 11.1194C395.313 21.1448 395.126 31.169 395.198 41.1949C395.206 43.4702 394.474 43.9866 392.335 43.9719C361.337 43.7109 330.338 43.5446 299.364 43.2364C296.896 43.2194 296.304 43.9737 296.334 46.3203C296.389 55.4218 296.256 64.522 296.193 73.6463C296.175 76.3007 296.666 76.6122 299.232 76.0847C300.432 75.8323 301.7 75.9596 302.922 75.968C310.56 76.0206 318.222 76.0023 325.86 76.126C332.393 76.2185 338.975 76.0505 345.457 76.7351C358.186 78.079 370.792 80.2278 382.194 86.6345C396.522 94.673 406.524 106.403 410.926 122.407C412.6 128.486 413.543 134.821 414.299 141.107C414.899 146.112 415.216 151.281 414.664 156.254C413.989 162.175 412.562 168.09 410.877 173.814C407.845 184.056 402.168 192.786 395.016 200.7C386.608 209.98 376.712 217.022 365.396 222.135C358.959 225.029 352.178 226.878 345.17 227.494C339.714 227.978 334.163 228.627 328.736 228.281C321.97 227.855 315.185 226.789 308.52 225.44C296.057 222.937 284.981 217.148 275.069 209.33C263.311 200.077 254.861 188.31 250.943 173.636C250.462 171.855 251.206 169.609 251.76 167.693C252.722 164.405 254.178 161.263 255.07 157.975C255.624 155.988 256.639 155.331 258.496 155.391C267.026 155.592 275.58 155.746 284.11 155.923C287 155.967 289.915 155.963 292.923 155.984L292.946 156.008Z" fill="black"/>
</svg>
