<svg width="1216" height="670" viewBox="0 0 1216 670" fill="none" xmlns="http://www.w3.org/2000/svg">
<path d="M264.187 340.351C270.858 318.782 277.597 297.214 284.268 275.645C295.22 240.458 305.966 205.27 317.124 170.153C328.141 135.59 339.636 101.238 350.722 66.6756C356.896 47.3203 362.523 27.8226 368.355 8.39569C369.478 4.80097 370.73 2.52342 375.672 2.55748C417.683 3.19338 459.628 3.55171 501.642 3.70269C506.996 3.73959 509.18 5.62515 510.657 10.5541C525.626 59.9832 541.007 109.346 555.838 158.843C568.991 202.787 581.456 246.934 594.334 290.945C598.895 306.564 603.868 322.116 608.772 337.668C609.377 339.543 610.877 341.147 612.031 342.956C617.494 327.337 622.746 312.409 627.929 297.411C636.897 271.217 645.591 244.951 654.833 218.897C667.646 182.683 681.144 146.683 693.889 110.399C705.862 76.5357 717.287 42.4604 729.191 8.52687C729.752 6.93734 732.715 5.29508 734.568 5.30786C778.985 5.47539 823.401 5.92003 867.816 6.36466C870.081 6.38027 872.271 7.43453 874.19 7.86343C858.155 53.3379 842.261 98.3976 826.298 143.388C809.355 191.142 792.275 238.895 775.331 286.719C759.367 331.917 743.745 377.186 727.508 422.244C710.219 470.342 692.246 518.159 674.752 566.187C671.323 575.585 668.716 585.335 665.218 594.733C664.449 596.736 661.548 599.28 659.626 599.266C629.281 599.334 598.938 599.195 568.597 598.639C566.4 598.624 562.919 595.76 562.248 593.538C548.89 549.455 536.15 505.237 522.792 461.222C513.393 430.329 503.101 399.637 493.565 368.812C482.216 332.085 471.279 295.223 460.137 258.429C453.894 237.811 447.651 217.261 441.477 196.643C440.94 194.838 440.816 192.898 440.289 189.707C438.631 191.22 436.978 192.04 436.557 193.284C428.564 217.476 420.639 241.738 412.783 265.931C405.911 286.875 398.97 307.819 392.235 328.833C375.256 381.713 358.415 434.664 341.505 487.615C330.558 522.04 319.474 556.395 308.87 590.891C307.394 595.8 305.461 597.311 300.519 597.207C271.619 596.8 242.787 596.602 213.884 596.61C209.49 596.58 206.682 595.591 205.134 591.146C194.507 559.205 183.88 527.195 173.047 495.322C160.329 458.032 147.198 420.808 134.48 383.518C126.404 359.908 118.81 336.162 110.94 312.554C103.406 290.056 95.8036 267.557 88.1323 245.058C81.6061 225.754 74.942 206.518 68.3466 187.283C58.991 160.13 49.3609 132.976 40.1431 105.756C29.712 75.2708 19.6924 44.8579 9.53545 14.4442C7.98755 9.93042 6.16457 5.48406 4.54707 1.1084L148.848 2.10282C186.854 115.634 224.523 228.263 262.261 340.961C262.88 340.758 263.568 340.555 264.188 340.282L264.187 340.351Z" fill="white"/>
<path d="M856.371 456.058C858.921 484.759 873.968 504.609 895.915 520.211C923.4 539.73 954.121 548.187 987.331 544.536C1006.03 542.448 1022.66 533.14 1037.57 521.949C1057.26 507.188 1071.68 488.165 1078.78 464.034C1082.44 451.519 1083.35 438.984 1082 425.811C1080.72 412.915 1079.43 400.158 1073.26 388.753C1061.93 367.682 1043.32 356.606 1020.39 353.261C946.95 342.64 872.975 349.613 799.202 347.164C794.944 346.996 790.618 346.62 786.772 346.386C793.638 327.172 800.012 309.41 806.319 291.509C822.014 247.205 837.778 202.903 853.337 158.529C868.264 116.022 882.985 73.4442 897.776 30.8668C899.948 24.6462 901.505 18.1442 903.952 11.9947C904.581 10.3362 907.065 8.89838 908.924 8.21835C910.922 7.53926 913.256 7.83249 915.385 7.84716C994.118 8.38973 1072.78 8.93183 1151.51 9.4744C1152.2 9.47913 1152.89 9.55315 1154.26 9.70118C1154.76 17.3259 1155.67 24.8842 1155.61 32.5051C1155.62 61.8125 1155.07 91.1161 1155.28 120.425C1155.31 127.076 1153.17 128.586 1146.91 128.543C1056.3 127.78 965.679 127.294 875.132 126.393C867.918 126.343 866.185 128.548 866.275 135.408C866.435 162.014 866.046 188.617 865.862 215.29C865.809 223.05 867.245 223.96 874.745 222.418C878.254 221.68 881.961 222.052 885.534 222.077C907.862 222.231 930.26 222.177 952.587 222.539C971.685 222.809 990.926 222.318 1009.87 224.32C1047.09 228.248 1083.94 234.53 1117.27 253.259C1159.15 276.757 1188.39 311.047 1201.26 357.833C1206.15 375.604 1208.91 394.122 1211.12 412.498C1212.88 427.129 1213.8 442.239 1212.19 456.778C1210.22 474.085 1206.04 491.378 1201.12 508.111C1192.25 538.05 1175.66 563.571 1154.75 586.706C1130.17 613.835 1101.24 634.421 1068.16 649.366C1049.35 657.828 1029.52 663.234 1009.04 665.033C993.087 666.447 976.859 668.345 960.995 667.335C941.217 666.09 921.383 662.974 901.897 659.029C865.465 651.711 833.084 634.79 804.111 611.934C769.739 584.884 745.036 550.488 733.583 507.591C732.176 502.385 734.351 495.818 735.97 490.217C738.784 480.606 743.039 471.42 745.647 461.808C747.267 455.999 750.235 454.079 755.661 454.255C780.597 454.843 805.603 455.292 830.539 455.811C838.989 455.938 847.508 455.927 856.302 455.988L856.371 456.058Z" fill="white"/>
</svg>
